<mxfile host="app.diagrams.net" modified="2023-03-10T13:52:43.408Z" agent="5.0 (Windows NT 10.0; Win64; x64) AppleWebKit/537.36 (KHTML, like Gecko) Chrome/110.0.0.0 Safari/537.36" etag="36sw-NmybIis71rHe2O1" version="21.0.2" type="github">
  <diagram name="Sherwin" id="-7APqkKBxGGa0uES_Ne3">
    <mxGraphModel dx="642" dy="468" grid="1" gridSize="10" guides="1" tooltips="1" connect="1" arrows="1" fold="1" page="1" pageScale="1" pageWidth="827" pageHeight="1169" math="0" shadow="0">
      <root>
        <mxCell id="0" />
        <mxCell id="1" parent="0" />
      </root>
    </mxGraphModel>
  </diagram>
</mxfile>
